<svg width="20" height="21" viewBox="0 0 20 21" fill="none" xmlns="http://www.w3.org/2000/svg">
<path d="M19 19.5L13 13.5M1 8.5C1 9.41925 1.18106 10.3295 1.53284 11.1788C1.88463 12.0281 2.40024 12.7997 3.05025 13.4497C3.70026 14.0998 4.47194 14.6154 5.32122 14.9672C6.1705 15.3189 7.08075 15.5 8 15.5C8.91925 15.5 9.82951 15.3189 10.6788 14.9672C11.5281 14.6154 12.2997 14.0998 12.9497 13.4497C13.5998 12.7997 14.1154 12.0281 14.4672 11.1788C14.8189 10.3295 15 9.41925 15 8.5C15 7.58075 14.8189 6.6705 14.4672 5.82122C14.1154 4.97194 13.5998 4.20026 12.9497 3.55025C12.2997 2.90024 11.5281 2.38463 10.6788 2.03284C9.82951 1.68106 8.91925 1.5 8 1.5C7.08075 1.5 6.1705 1.68106 5.32122 2.03284C4.47194 2.38463 3.70026 2.90024 3.05025 3.55025C2.40024 4.20026 1.88463 4.97194 1.53284 5.82122C1.18106 6.6705 1 7.58075 1 8.5Z" stroke="#2C3E50" stroke-width="2" stroke-linecap="round" stroke-linejoin="round"/>
</svg>
